<svg xmlns="http://www.w3.org/2000/svg" xmlns:xlink="http://www.w3.org/1999/xlink" width="750" height="900" viewBox="0 0 750 900">
  <defs>
    <clipPath id="clip-canvas">
      <rect width="750" height="900"/>
    </clipPath>
  </defs>
  <g id="Canvas" clip-path="url(#clip-canvas)">
    <rect width="750" height="900" fill="rgba(0,0,0,0)"/>
    <path id="white-fill" d="M648.008,477.99c0,.2-.008.393-.008.59V715.809c0,.062.008.123.008.184,0,42.526-122.226,77-273,77s-272.987-34.471-273-76.994H102V478h.008s0-.007,0-.01c0-111.309,82.72-205.266,196-235.1v-135.9H452v135.9C565.284,272.718,648.008,366.677,648.008,477.99Z" fill="#fff" stroke="#000" stroke-width="0"/>
    <path id="logo" d="M315.74,812.012c-18.876-1.288-37.443-3.208-55.185-5.71-17.42-2.456-34.223-5.5-49.939-9.035-15.567-3.506-30.207-7.532-43.511-11.966a286.46,286.46,0,0,1-35.9-14.5A154.287,154.287,0,0,1,104.1,754.151c-7.505-5.914-13.269-12.1-17.132-18.4a37.55,37.55,0,0,1-5.975-19.75v-238a.017.017,0,0,0,0-.006.022.022,0,0,1,0-.007,242.708,242.708,0,0,1,14.567-82.917,256.315,256.315,0,0,1,40.612-72.238,282.005,282.005,0,0,1,62.022-57.371,304.141,304.141,0,0,1,78.794-38.315V176.5a56.365,56.365,0,0,1-20.264-20.1,55.91,55.91,0,0,1,1.844-59.687A56.16,56.16,0,0,1,283.2,76.416a55.644,55.644,0,0,1,21.8-4.4H445a55.744,55.744,0,0,1,31.31,9.564A56.167,56.167,0,0,1,496.6,106.217,55.967,55.967,0,0,1,499.213,142H515a55.748,55.748,0,0,1,31.31,9.563A56.154,56.154,0,0,1,566.6,176.2,55.644,55.644,0,0,1,571,198a97.575,97.575,0,0,1-24.027,64.252,287.438,287.438,0,0,1,50.248,41.6A267.331,267.331,0,0,1,635.7,354.939a249.513,249.513,0,0,1,24.62,58.675,243,243,0,0,1,8.672,64.38V716.007a37.556,37.556,0,0,1-5.976,19.75c-3.864,6.292-9.627,12.481-17.132,18.4A154.286,154.286,0,0,1,618.774,770.8a286.456,286.456,0,0,1-35.9,14.5c-13.3,4.434-27.943,8.461-43.51,11.966-15.717,3.539-32.519,6.579-49.939,9.035-17.743,2.5-36.31,4.422-55.185,5.71-19.368,1.321-39.3,1.991-59.25,1.991S335.108,813.333,315.74,812.012Zm26.4-202.184c4.478.791,9.02,1.547,13.5,2.246,16.768,44.8,34.244,90.805,51.944,136.731,8.82-.437,17.745-1.061,26.527-1.854,16.886-48.022,33.6-96.353,49.675-143.65,4.48-1.315,9.042-2.7,13.56-4.129V582.614c-18.272,3.46-36.918,6.174-55.42,8.066v16.556c5.448.153,10.954.238,16.366.255-10.85,32.386-22.056,65.475-33.305,98.348q-1.422,4.8-2.844,9.59l-.2.674-.652.047-1.534-5.2-1.4-4.75c-11.144-31.307-22.24-62.73-32.98-93.394,4.741-.814,9.577-1.7,14.374-2.626V593.627c-8.219.31-16.547.466-24.754.466-10.908,0-21.961-.276-32.853-.822ZM288.29,619.862l.54.179q-.109,34.005-.217,68.01V724.26c-6.007.269-12.076.457-18.042.559v16.449c20.337,3.271,41.083,5.61,61.662,6.952V731.77c-5.741-1.438-11.554-2.973-17.278-4.559v-116.1c5.719-.537,11.531-1.159,17.278-1.85V592.7c-18.981-1.237-38.129-3.326-56.913-6.206-14.451,34.148-29.421,69.163-44.491,104.073l-.31-.07-.061-.013-.27-.061c-15.405-41.444-30.657-83.3-45.329-124.42-12.648-3.82-25.351-8.083-37.757-12.667-5.444-2.011-10.94-4.126-16.333-6.284v16.556c5.4,3.224,10.895,6.416,16.333,9.488V689.2c-5.462-.95-10.958-1.987-16.333-3.079v16.448c19.365,7.748,39.338,14.652,59.363,20.52V706.641c-6.084-2.85-12.208-5.82-18.2-8.825V659.791l-.688-33.342,0-.219-.67-32.465.264.032.065.008.2.023c15.858,44.248,32.365,89.253,49.064,133.768,6.48,1.57,13.06,3.058,19.557,4.424,16.537-37.753,32.881-75.489,48.577-112.159h0Zm235.689-23.1v116.1c-5.641,2.377-11.365,4.706-17.014,6.925v16.449c19.2-3.932,38.452-8.787,57.228-14.428,18.892-5.676,37.755-12.287,56.067-19.649V658.045c-6.6,2.654-13.316,5.227-19.958,7.649l-.567,7.76q-.6,8.19-1.2,16.381c-15.656,5.66-31.724,10.786-47.761,15.234V589.927c6.024-2.738,12.1-5.594,18.052-8.492V564.879c-5.969,1.841-12.043,3.62-18.052,5.287-8.842,2.453-17.857,4.751-26.8,6.831-5.627,1.309-11.351,2.561-17.014,3.721v16.555c5.656-.1,11.38-.269,17.013-.517ZM116,478.212c.056,4.7,1.848,9.4,5.326,13.968,3.42,4.488,8.511,8.9,15.132,13.121a144.961,144.961,0,0,0,23.9,11.873,289.317,289.317,0,0,0,31.626,10.344c11.717,3.163,24.609,6.034,38.316,8.534,13.838,2.525,28.631,4.692,43.966,6.443a892.183,892.183,0,0,0,100.73,5.492,892.116,892.116,0,0,0,100.8-5.5c15.345-1.754,30.145-3.925,43.991-6.452,13.713-2.5,26.609-5.379,38.329-8.546a288.824,288.824,0,0,0,31.626-10.358,144.425,144.425,0,0,0,23.882-11.888c6.612-4.224,11.692-8.644,15.1-13.137,3.494-4.611,5.267-9.356,5.27-14.1v-.019a208.121,208.121,0,0,0-14.8-77.126,219.066,219.066,0,0,0-17.538-34.7,232,232,0,0,0-23.45-31.374A246.228,246.228,0,0,0,549.482,307.3a259.487,259.487,0,0,0-33.369-23.017,270.66,270.66,0,0,0-37.375-17.99,279.865,279.865,0,0,0-40.747-12.4V121.01h-126V253.9a279.761,279.761,0,0,0-40.745,12.4,270.64,270.64,0,0,0-37.373,17.99A259.51,259.51,0,0,0,200.5,307.3a246.212,246.212,0,0,0-28.725,27.478,232.073,232.073,0,0,0-23.449,31.373,219.172,219.172,0,0,0-17.537,34.7A208.12,208.12,0,0,0,116,477.981v.005a.015.015,0,0,1,0,.009V478q0,.086,0,.173l0,.117v-.079ZM472.985,227.149A309.72,309.72,0,0,1,516,244.565a62.189,62.189,0,0,0,14.608-20.273,61.6,61.6,0,0,0,3.993-12.167,62.339,62.339,0,0,0,1.4-13.135,21.982,21.982,0,0,0-22-22H472.985ZM374.995,520c-62.433,0-119.071-9.387-160.644-24.632a160.055,160.055,0,0,1,18.391-64.814l3.639,3.64a46.25,46.25,0,0,0,65.408,0l1.415-1.414a46.251,46.251,0,0,0,0-65.408l-3.639-3.639A160.265,160.265,0,0,1,374.344,345c.219,0,.436,0,.656,0,.3,0,.594,0,.892,0A161,161,0,0,1,535.641,495.371C494.069,510.614,437.434,520,375,520Z" stroke="#000" stroke-width="0"/>
  </g>
</svg>
